<svg width="137" height="140" viewBox="0 0 137 140" fill="none" xmlns="http://www.w3.org/2000/svg">
<path d="M0 29.5181C0 13.2157 12.9325 0 28.8855 0H108.114C124.068 0 137 13.2157 137 29.5181V110.482C137 126.784 124.068 140 108.114 140H28.8855C12.9325 140 0 126.784 0 110.482V29.5181Z" fill="#BBFF49"/>
<path d="M60.7599 21.3753C63.4187 14.0328 73.5813 14.0328 76.2401 21.3753L85.6842 47.4566C86.5201 49.7651 88.3012 51.5852 90.5602 52.4394L116.083 62.0904C123.268 64.8074 123.268 75.1926 116.083 77.9096L90.5602 87.5605C88.3012 88.4147 86.5201 90.2348 85.6842 92.5433L76.2401 118.625C73.5813 125.967 63.4187 125.967 60.7599 118.625L51.3157 92.5433C50.4798 90.2348 48.6987 88.4147 46.4397 87.5605L20.9173 77.9096C13.7321 75.1926 13.7321 64.8074 20.9173 62.0904L46.4397 52.4394C48.6987 51.5852 50.4798 49.7651 51.3157 47.4566L60.7599 21.3753Z" fill="#732AEF"/>
<path d="M23.4221 52.5377C18.5289 46.5134 23.6102 37.5196 31.1622 38.8379L57.9874 43.5205C60.3617 43.935 62.7947 43.2688 64.6481 41.6967L85.5882 23.9351C91.4834 18.9348 100.284 24.1274 98.9944 31.8447L94.4121 59.2573C94.0065 61.6836 94.6584 64.1699 96.1968 66.0639L113.578 87.4625C118.471 93.4868 113.39 102.481 105.838 101.162L79.0126 96.4796C76.6383 96.0652 74.2053 96.7314 72.3518 98.3035L51.4118 116.065C45.5166 121.065 36.7155 115.873 38.0055 108.155L42.5878 80.7429C42.9934 78.3166 42.3415 75.8303 40.8031 73.9363L23.4221 52.5377Z" fill="#732AEF"/>
</svg>
